<svg width="127" height="30" viewBox="0 0 127 30" fill="none" xmlns="http://www.w3.org/2000/svg">
<path d="M69.4884 0.360352L60.1415 29.5832H49.5813L44.8694 13.9699L39.9006 29.5832H29.3469L20 0.360352H30.1365L35.2272 16.9756L40.6068 0.360352H49.6648L54.7555 17.1812L60.1415 0.360352H69.4884Z" fill="white"/>
<path d="M96.1103 24.5728H92.2329V29.5825H82.6742V24.5728H67.5305V18.3108L79.9202 0.359619H90.0182L79.0022 16.9364H82.9631V12.4662H92.2265V16.9364H96.1039V24.5728H96.1103Z" fill="white"/>
<path d="M111.171 22.235H108.5V29.5825H98.6525V0.359619H112.711C115.408 0.359619 117.763 0.802779 119.766 1.69552C121.769 2.58826 123.31 3.86636 124.395 5.53624C125.48 7.20612 126.025 9.15217 126.025 11.3808C126.025 13.4682 125.55 15.2922 124.607 16.8464C123.663 18.4071 122.296 19.6403 120.517 20.5651L126.648 29.5825H116.133L111.171 22.235ZM115.093 8.85673C114.425 8.25942 113.424 7.95756 112.089 7.95756H108.5V14.8041H112.089C113.424 14.8041 114.425 14.5022 115.093 13.9049C115.761 13.3076 116.094 12.4662 116.094 11.3808C116.094 10.2954 115.761 9.45403 115.093 8.85673Z" fill="white"/>
<path d="M1.56637 28.478C0.519986 27.4633 0 26.1595 0 24.5731C0 22.9867 0.519986 21.7022 1.56637 20.7131C2.61276 19.724 3.92235 19.2295 5.50798 19.2295C7.09362 19.2295 8.40963 19.724 9.44959 20.7131C10.4896 21.7022 11.016 22.9867 11.016 24.5731C11.016 26.1595 10.496 27.4633 9.44959 28.478C8.40321 29.4928 7.09362 30.0002 5.50798 30.0002C3.92235 30.0002 2.61276 29.4928 1.56637 28.478Z" fill="#14C2A9"/>
<path d="M26.1959 29.5825H15.5009L6 0H16.7014L26.1959 29.5825Z" fill="#14C2A9"/>
<path d="M39.5456 29.5825H28.8442L19.3497 0H30.0511L39.5456 29.5825Z" fill="#14C2A9"/>
</svg>
