<svg width="132" height="30" viewBox="0 0 132 30" fill="none" xmlns="http://www.w3.org/2000/svg">
<path d="M74.4884 0.360352L65.1415 29.5832H54.5813L49.8694 13.9699L44.9006 29.5832H34.3469L25 0.360352H35.1365L40.2272 16.9756L45.6068 0.360352H54.6648L59.7555 17.1812L65.1415 0.360352H74.4884V0.360352Z" fill="white"/>
<path d="M101.11 24.5728H97.2329V29.5825H87.6742V24.5728H72.5305V18.3108L84.9202 0.359619H95.0182L84.0022 16.9364H87.9631V12.4662H97.2265V16.9364H101.104V24.5728H101.11Z" fill="white"/>
<path d="M116.171 22.235H113.5V29.5825H103.652V0.359619H117.711C120.408 0.359619 122.763 0.802779 124.766 1.69552C126.769 2.58826 128.31 3.86636 129.395 5.53624C130.48 7.20612 131.025 9.15217 131.025 11.3808C131.025 13.4682 130.55 15.2922 129.607 16.8464C128.663 18.4071 127.296 19.6403 125.517 20.5651L131.648 29.5825H121.133L116.171 22.235ZM120.093 8.85673C119.425 8.25942 118.424 7.95756 117.089 7.95756H113.5V14.8041H117.089C118.424 14.8041 119.425 14.5022 120.093 13.9049C120.761 13.3076 121.094 12.4662 121.094 11.3808C121.094 10.2954 120.761 9.45403 120.093 8.85673Z" fill="white"/>
<path d="M5.56637 27.478C4.51999 26.4633 4 25.1595 4 23.5731C4 21.9867 4.51999 20.7022 5.56637 19.7131C6.61276 18.724 7.92235 18.2295 9.50798 18.2295C11.0936 18.2295 12.4096 18.724 13.4496 19.7131C14.4896 20.7022 15.016 21.9867 15.016 23.5731C15.016 25.1595 14.496 26.4633 13.4496 27.478C12.4032 28.4928 11.0936 29.0002 9.50798 29.0002C7.92235 29.0002 6.61276 28.4928 5.56637 27.478Z" fill="white"/>
<path d="M1.56637 13.2486C0.519986 12.2338 0 10.93 0 9.34361C0 7.75722 0.519986 6.4727 1.56637 5.48362C2.61276 4.49454 3.92235 4 5.50798 4C7.09362 4 8.40963 4.49454 9.44959 5.48362C10.4896 6.4727 11.016 7.75722 11.016 9.34361C11.016 10.93 10.496 12.2338 9.44959 13.2486C8.40321 14.2633 7.09362 14.7707 5.50798 14.7707C3.92235 14.7707 2.61276 14.2633 1.56637 13.2486Z" fill="#14C2A9"/>
<path d="M31.1959 29.5825H20.5009L11 0H21.7014L31.1959 29.5825Z" fill="#14C2A9"/>
</svg>
